<?xml version="1.0" encoding="UTF-8"?>
<svg id="Layer_1" xmlns="http://www.w3.org/2000/svg" version="1.1" viewBox="0 0 566 632.6">
  <!-- Generator: Adobe Illustrator 29.8.2, SVG Export Plug-In . SVG Version: 2.1.1 Build 3)  -->
  <path d="M332.9,632.6l213.7-45.4c10.1-22.4,16.8-46.7,19.3-72.2l-213.7,45.4c-10.1,22.4-16.8,46.7-19.3,72.2Z"/>
  <path d="M546.7,451h0c10.1-22.4,16.8-46.7,19.3-72.2l-166.5,35.4v-68.1l147.2-31.3c10.1-22.4,16.8-46.7,19.3-72.2l-166.5,35.4V33.3c-25.5,14.3-48.2,33.4-66.6,55.9v203.1l-66.6,14.2V0c-25.5,14.3-48.2,33.4-66.6,55.9v264.7l-149,31.7c-10.1,22.4-16.8,46.7-19.3,72.2l168.3-35.8v85.7l-180.4,38.3C9.2,535.1,2.5,559.4,0,584.9l188.8-40.1c15.4-3.2,28.6-12.3,37.2-24.8l34.6-51.3h0c3.6-5.3,5.7-11.7,5.7-18.6v-75.5l66.6-14.2v136.1l213.7-45.5Z"/>
</svg>