<?xml version="1.0" encoding="UTF-8"?>
<svg id="Layer_1" xmlns="http://www.w3.org/2000/svg" version="1.1" viewBox="0 0 589.3 657.6">
  <!-- Generator: Adobe Illustrator 29.8.2, SVG Export Plug-In . SVG Version: 2.1.1 Build 3)  -->
  <path d="M346.9,516.3v-141.7l-70.4,14.7v79.1c0,7.2-1.9,13.7-5.6,19.4l-35.9,53.1c-10.1,13.5-22.8,22.2-38,25.9L0,608.3c2.9-25.6,9.8-50.6,20.7-74.7l187.1-40.2v-89.4l-175.4,37.2c3.2-27.1,10.1-52,20.7-74.7l154.7-32.4V58.3c19.9-24.5,42.8-43.9,68.7-58.3v318l70.4-14.3V92.9c18.7-24.5,41.6-43.9,68.7-58.3v254.9l173.7-37.2c-2.9,24.5-9.9,49.5-21.2,75.2l-152.5,32.4v70.9l173.7-36.7c-2.6,23.3-9.7,48.5-21.2,75.6l-221.2,46.7ZM568.2,610.5l-221.2,47.1c2-25.3,8.4-50.3,19-74.7l223.4-47.1c-2.9,25.1-9.9,50-21.2,74.7Z"/>
</svg>