<?xml version="1.0" encoding="UTF-8"?>
<svg id="Layer_2" data-name="Layer 2" xmlns="http://www.w3.org/2000/svg" width="171.27" height="191.11" viewBox="0 0 171.27 191.11">
  <g id="Layer_1-2" data-name="Layer 1">
    <path fill="#000000" d="M100.83,150.05v-41.18l-20.47,4.27v22.98c0,2.09-.55,3.98-1.63,5.65l-10.42,15.44c-2.93,3.94-6.61,6.45-11.05,7.53L0,176.79c.84-7.45,2.84-14.69,6.03-21.72l54.37-11.68v-25.99l-50.98,10.8c.92-7.87,2.93-15.11,6.03-21.72l44.95-9.42V16.95c5.78-7.11,12.43-12.76,19.96-16.95v92.42l20.47-4.14V27c5.44-7.11,12.1-12.76,19.96-16.95v74.08l50.48-10.8c-.84,7.12-2.89,14.4-6.15,21.85l-44.32,9.42v20.59l50.48-10.67c-.75,6.78-2.81,14.11-6.15,21.97l-64.29,13.56ZM165.12,177.42l-64.29,13.69c.58-7.37,2.43-14.61,5.52-21.72l64.92-13.69c-.84,7.28-2.89,14.52-6.15,21.72Z"/>
  </g>
</svg>