<svg
  xmlns="http://www.w3.org/2000/svg"
  viewBox="0 0 566 632.59"
  width={desiredWidth}
  height={desiredHeight}
>
  <path
    d="M352.26,560.4l213.74-45.44c-2.56,25.49-9.23,49.8-19.33,72.19l-213.74,45.44c2.56-25.49,9.23-49.79,19.33-72.19ZM546.66,451.02h0c10.1-22.38,16.78-46.69,19.33-72.18l-166.5,35.41v-68.07l147.16-31.27c10.1-22.39,16.78-46.7,19.33-72.19l-166.5,35.38V33.3c-25.51,14.32-48.17,33.39-66.59,55.88v203.09l-66.59,14.15V0c-25.51,14.32-48.17,33.39-66.59,55.88v264.68l-148.99,31.66c-10.1,22.39-16.78,46.7-19.34,72.19l168.33-35.77v85.73l-180.4,38.34c-10.1,22.39-16.78,46.7-19.33,72.19l188.83-40.13c15.37-3.2,28.58-12.29,37.17-24.79l34.63-51.34h0c3.59-5.32,5.69-11.73,5.69-18.62v-75.51l66.59-14.15v136.15l213.75-45.46Z"
    fill={desiredColor} // Use your theme color here
  />
</svg>
