<svg width="55" height="18" viewBox="0 0 55 18" fill="none" xmlns="http://www.w3.org/2000/svg">
<rect width="55" height="18" rx="5" fill="#3CFFBA"/>
<path fill-rule="evenodd" clip-rule="evenodd" d="M31.1343 4.00094L32.9327 3.71765V7.76631C33.0014 6.35019 33.8891 5.5108 35.3382 5.5108C37.0277 5.5108 38.0415 6.81843 38.0357 9.00544C38.0357 11.1924 37.0277 12.5 35.3324 12.5C33.8834 12.5 32.9957 11.6607 32.9269 10.2331V12.3687H31.1343V4.00094ZM36.203 9.00544C36.203 7.7035 35.573 6.92692 34.5191 6.92692C34.0094 6.92692 33.5799 7.12677 33.282 7.50364C32.9899 7.86909 32.8353 8.38871 32.8353 9.00544C32.8353 10.2617 33.4939 11.0725 34.5191 11.0725C35.573 11.0725 36.203 10.3016 36.203 9.00544Z" fill="#131C26"/>
<path fill-rule="evenodd" clip-rule="evenodd" d="M25.332 3.67358L23.5337 3.95698V12.3689H25.332V10.2333C25.4007 11.6609 26.2885 12.5002 27.7375 12.5002C29.4329 12.5002 30.4409 11.1926 30.4409 9.00564C30.4409 6.81863 29.4329 5.511 27.7375 5.511C26.2885 5.511 25.4007 6.35039 25.332 7.7665V3.67358ZM28.6081 9.00564C28.6081 7.7037 27.9781 6.92712 26.9243 6.92712C26.4146 6.92712 25.985 7.12697 25.6872 7.50384C25.395 7.86929 25.2404 8.38891 25.2404 9.00564C25.2404 10.2619 25.899 11.0727 26.9243 11.0727C27.9781 11.0727 28.6081 10.3018 28.6081 9.00564Z" fill="#131C26"/>
<path d="M44.9998 5.63672L42.6435 14.5508H40.8509L41.4374 12.3576H39.7994L38.041 5.64242H39.9597L41.4832 12.1977L43.2014 5.64242V5.63672H44.9998Z" fill="#131C26"/>
<path d="M11.3389 5.87526L15.05 5.29028V6.53408L12.8465 6.88141V7.49502L15.05 7.14768V8.39148L12.8465 8.73885V10.033C12.8465 11.1693 14.2417 10.962 14.7824 10.61V12.2031C14.348 12.4196 13.8148 12.5058 13.3333 12.5058C11.953 12.5058 11.0481 11.7663 11.0481 10.4729V9.02227L10 9.18754V7.94371L11.0481 7.7785V7.1649L10 7.33011V6.08631L11.0481 5.9211V3.44946H12.9496V3.9748C12.9496 4.80491 12.3638 5.63503 11.3389 5.87526Z" fill="#131C26"/>
<path fill-rule="evenodd" clip-rule="evenodd" d="M20.6985 5.93354L22.4969 5.65945V12.3689H20.6985V10.2333C20.6298 11.6551 19.742 12.5002 18.293 12.5002C17.4625 12.5002 16.7753 12.1804 16.3113 11.5752C15.8474 10.9699 15.6011 10.0848 15.6011 9.00563C15.6011 7.92638 15.8474 7.0413 16.3113 6.43603C16.7753 5.83075 17.4625 5.51099 18.293 5.51099C19.742 5.51099 20.6298 6.35038 20.6985 7.76649V5.93354ZM20.7959 9.00563C20.7959 8.39461 20.6412 7.87499 20.3491 7.50382C20.0513 7.12696 19.6218 6.92711 19.112 6.92711C18.0582 6.92711 17.4281 7.70369 17.4281 9.00563C17.4281 10.3075 18.0582 11.0726 19.112 11.0726C20.1372 11.0726 20.7959 10.2619 20.7959 9.00563Z" fill="#131C26"/>
</svg>
