<svg width="122" height="25" viewBox="0 0 122 25" fill="none" xmlns="http://www.w3.org/2000/svg">
<rect width="121.824" height="24.1648" fill="white"/>
<path d="M22.6425 10.1134C22.6425 10.2268 22.5717 10.3542 22.43 10.4959L19.5546 13.3005L20.2345 17.2525C20.2439 17.2903 20.2487 17.3422 20.2487 17.4083C20.2487 17.5216 20.2203 17.6161 20.1637 17.6916C20.107 17.7672 20.0267 17.8049 19.9229 17.8049C19.819 17.8049 19.7151 17.7719 19.6112 17.7058L16.0559 15.836L12.5005 17.7058C12.3872 17.7719 12.2786 17.8049 12.1747 17.8049C12.0708 17.8049 11.9906 17.7672 11.9339 17.6916C11.8773 17.6161 11.8489 17.5216 11.8489 17.4083L11.8631 17.2525L12.543 13.3005L9.66755 10.4959C9.53534 10.3542 9.46924 10.2268 9.46924 10.1134C9.46924 9.91514 9.61561 9.79238 9.90835 9.74516L13.8745 9.1644L15.6593 5.56654C15.7631 5.34935 15.8906 5.24075 16.0417 5.24075C16.1928 5.24075 16.3203 5.34935 16.4242 5.56654L18.2089 9.1644L22.1751 9.74516C22.4678 9.79238 22.6142 9.91514 22.6142 10.1134H22.6425Z" fill="#E4A709"/>
<g clip-path="url(#clip0_10932_19701)">
<path d="M37.8075 10.1134C37.8075 10.2268 37.7367 10.3542 37.5951 10.4959L34.7196 13.3005L35.3995 17.2525C35.409 17.2903 35.4137 17.3422 35.4137 17.4083C35.4137 17.5216 35.3854 17.6161 35.3287 17.6916C35.272 17.7672 35.1918 17.8049 35.0879 17.8049C34.984 17.8049 34.8801 17.7719 34.7763 17.7058L31.2209 15.836L27.6655 17.7058C27.5522 17.7719 27.4436 17.8049 27.3398 17.8049C27.2359 17.8049 27.1556 17.7672 27.099 17.6916C27.0423 17.6161 27.014 17.5216 27.014 17.4083L27.0281 17.2525L27.708 13.3005L24.8326 10.4959C24.7004 10.3542 24.6343 10.2268 24.6343 10.1134C24.6343 9.91514 24.7806 9.79238 25.0734 9.74516L29.0395 9.1644L30.8243 5.56654C30.9282 5.34935 31.0557 5.24075 31.2067 5.24075C31.3578 5.24075 31.4853 5.34935 31.5892 5.56654L33.374 9.1644L37.3401 9.74516C37.6328 9.79238 37.7792 9.91514 37.7792 10.1134H37.8075Z" fill="#E4A709"/>
</g>
<g clip-path="url(#clip1_10932_19701)">
<path d="M52.9721 10.1134C52.9721 10.2268 52.9013 10.3542 52.7596 10.4959L49.8842 13.3005L50.5641 17.2525C50.5735 17.2903 50.5782 17.3422 50.5782 17.4083C50.5782 17.5216 50.5499 17.6161 50.4933 17.6916C50.4366 17.7672 50.3563 17.8049 50.2525 17.8049C50.1486 17.8049 50.0447 17.7719 49.9408 17.7058L46.3855 15.836L42.8301 17.7058C42.7168 17.7719 42.6082 17.8049 42.5043 17.8049C42.4004 17.8049 42.3202 17.7672 42.2635 17.6916C42.2068 17.6161 42.1785 17.5216 42.1785 17.4083L42.1927 17.2525L42.8726 13.3005L39.9971 10.4959C39.8649 10.3542 39.7988 10.2268 39.7988 10.1134C39.7988 9.91514 39.9452 9.79238 40.2379 9.74516L44.2041 9.1644L45.9888 5.56654C46.0927 5.34935 46.2202 5.24075 46.3713 5.24075C46.5224 5.24075 46.6499 5.34935 46.7537 5.56654L48.5385 9.1644L52.5047 9.74516C52.7974 9.79238 52.9438 9.91514 52.9438 10.1134H52.9721Z" fill="#E4A709"/>
</g>
<g clip-path="url(#clip2_10932_19701)">
<path d="M68.1371 10.1136C68.1371 10.2269 68.0663 10.3544 67.9247 10.496L65.0492 13.3006L65.7291 17.2526C65.7386 17.2904 65.7433 17.3423 65.7433 17.4084C65.7433 17.5218 65.715 17.6162 65.6583 17.6917C65.6016 17.7673 65.5214 17.8051 65.4175 17.8051C65.3136 17.8051 65.2097 17.772 65.1059 17.7059L61.5505 15.8361L57.9951 17.7059C57.8818 17.772 57.7732 17.8051 57.6693 17.8051C57.5655 17.8051 57.4852 17.7673 57.4285 17.6917C57.3719 17.6162 57.3436 17.5218 57.3436 17.4084L57.3577 17.2526L58.0376 13.3006L55.1622 10.496C55.03 10.3544 54.9639 10.2269 54.9639 10.1136C54.9639 9.91526 55.1102 9.7925 55.403 9.74528L59.3691 9.16453L61.1539 5.56667C61.2578 5.34947 61.3852 5.24088 61.5363 5.24088C61.6874 5.24088 61.8149 5.34947 61.9188 5.56667L63.7035 9.16453L67.6697 9.74528C67.9624 9.7925 68.1088 9.91526 68.1088 10.1136H68.1371Z" fill="#E4A709"/>
</g>
<g opacity="0.6" clip-path="url(#clip3_10932_19701)">
<path d="M83.7836 10.1136C83.7836 10.2269 83.7128 10.3544 83.5711 10.496L80.6957 13.3006L81.3756 17.2526C81.385 17.2904 81.3898 17.3423 81.3898 17.4084C81.3898 17.5218 81.3614 17.6162 81.3048 17.6917C81.2481 17.7673 81.1678 17.8051 81.064 17.8051C80.9601 17.8051 80.8562 17.772 80.7523 17.7059L77.197 15.8361L73.6416 17.7059C73.5283 17.772 73.4197 17.8051 73.3158 17.8051C73.212 17.8051 73.1317 17.7673 73.075 17.6917C73.0184 17.6162 72.99 17.5218 72.99 17.4084L73.0042 17.2526L73.6841 13.3006L70.8087 10.496C70.6765 10.3544 70.6104 10.2269 70.6104 10.1136C70.6104 9.91526 70.7567 9.7925 71.0495 9.74528L75.0156 9.16453L76.8004 5.56667C76.9042 5.34947 77.0317 5.24088 77.1828 5.24088C77.3339 5.24088 77.4614 5.34947 77.5653 5.56667L79.35 9.16453L83.3162 9.74528C83.6089 9.7925 83.7553 9.91526 83.7553 10.1136H83.7836Z" fill="#C4C4C4"/>
</g>
<path d="M92.7642 18.3224C92.3322 17.8984 91.9322 17.3944 91.5642 16.8104C91.2042 16.2344 90.9162 15.5944 90.7002 14.8904C90.4922 14.1784 90.3882 13.4104 90.3882 12.5864C90.3882 11.7624 90.4922 10.9984 90.7002 10.2944C90.9162 9.5824 91.2042 8.9344 91.5642 8.3504C91.9322 7.7664 92.3322 7.2664 92.7642 6.8504H93.9882V6.9584C93.5002 7.4544 93.0762 7.9984 92.7162 8.5904C92.3562 9.1824 92.0762 9.8144 91.8762 10.4864C91.6762 11.1584 91.5762 11.8584 91.5762 12.5864C91.5762 13.3144 91.6762 14.0144 91.8762 14.6864C92.0762 15.3584 92.3562 15.9904 92.7162 16.5824C93.0842 17.1744 93.5082 17.7184 93.9882 18.2144V18.3224H92.7642ZM98.6647 16.5824V14.8664H94.4527V13.9304L98.4727 8.1824H99.8527V13.8224H101.053V14.8664H99.8527V16.5824H98.6647ZM95.7607 13.8224H98.7367V9.5024L95.7607 13.8224ZM102.722 16.6424C102.49 16.6424 102.298 16.5704 102.146 16.4264C102.002 16.2744 101.93 16.0944 101.93 15.8864C101.93 15.6704 102.002 15.4904 102.146 15.3464C102.298 15.1944 102.49 15.1184 102.722 15.1184C102.954 15.1184 103.142 15.1944 103.286 15.3464C103.43 15.4904 103.502 15.6704 103.502 15.8864C103.502 16.0944 103.43 16.2744 103.286 16.4264C103.142 16.5704 102.954 16.6424 102.722 16.6424ZM105.524 16.5824V9.5384L104.06 9.9104V9.0104L105.968 8.1824H106.748V16.5824H105.524ZM109.269 18.3224H108.057V18.2144C108.545 17.7184 108.965 17.1744 109.317 16.5824C109.677 15.9904 109.957 15.3584 110.157 14.6864C110.357 14.0144 110.457 13.3144 110.457 12.5864C110.457 11.8584 110.357 11.1584 110.157 10.4864C109.957 9.8144 109.677 9.1824 109.317 8.5904C108.965 7.9984 108.545 7.4544 108.057 6.9584V6.8504H109.269C109.717 7.2664 110.117 7.7664 110.469 8.3504C110.829 8.9344 111.117 9.5824 111.333 10.2944C111.549 10.9984 111.657 11.7624 111.657 12.5864C111.657 13.4104 111.549 14.1784 111.333 14.8904C111.117 15.5944 110.829 16.2344 110.469 16.8104C110.117 17.3944 109.717 17.8984 109.269 18.3224Z" fill="#5E5E6C"/>
<path d="M89.8242 18.0824H112.221V18.6824H89.8242V18.0824Z" fill="#5E5E6C"/>
<defs>
<clipPath id="clip0_10932_19701">
<rect width="14.1648" height="14.1648" fill="white" transform="matrix(1 0 0 -1 24.165 19.1648)"/>
</clipPath>
<clipPath id="clip1_10932_19701">
<rect width="14.1648" height="14.1648" fill="white" transform="matrix(1 0 0 -1 39.3296 19.1648)"/>
</clipPath>
<clipPath id="clip2_10932_19701">
<rect width="14.1648" height="14.1648" fill="white" transform="matrix(1 0 0 -1 54.4946 19.1648)"/>
</clipPath>
<clipPath id="clip3_10932_19701">
<rect width="14.1648" height="14.1648" fill="white" transform="matrix(1 0 0 -1 69.6592 19.1648)"/>
</clipPath>
</defs>
</svg>
